<svg width="190" height="203" viewBox="0 0 190 203" fill="none" xmlns="http://www.w3.org/2000/svg">
<rect x="4" y="17" width="182" height="182" rx="12" stroke="#060606" stroke-width="8"/>
<rect x="53" width="16" height="35" rx="8" fill="black"/>
<rect x="120" width="16" height="35" rx="8" fill="black"/>
<rect x="23" y="43" width="30" height="30" fill="#D92228" fill-opacity="0.3"/>
<rect x="80" y="43" width="30" height="30" fill="#D92228" fill-opacity="0.3"/>
<rect x="137" y="43" width="30" height="30" fill="#D92228" fill-opacity="0.3"/>
<rect x="23" y="93" width="30" height="30" fill="#D92228" fill-opacity="0.3"/>
<rect x="80" y="93" width="30" height="30" fill="#D92228" fill-opacity="0.3"/>
<rect x="137" y="93" width="30" height="30" fill="#D92228" fill-opacity="0.3"/>
<rect x="23" y="143" width="30" height="30" fill="#D92228" fill-opacity="0.3"/>
<rect x="80" y="143" width="30" height="30" fill="#D92228" fill-opacity="0.3"/>
<rect x="137" y="143" width="30" height="30" fill="#D92228" fill-opacity="0.3"/>
<path d="M40.2827 154.061L11.23 65.1328H47.5459L64.2695 115.792C64.6357 117.135 64.9613 118.64 65.2461 120.309C65.5716 121.936 65.8158 123.014 65.9785 123.543H65.9175C66.0396 122.974 66.182 122.221 66.3447 121.285C66.5482 120.349 66.7313 119.658 66.894 119.21L84.7163 65.1328H115.112L132.812 115.304C133.626 118.071 134.134 120.003 134.338 121.102C134.582 122.201 134.765 123.055 134.887 123.666H135.009C135.091 123.096 135.233 122.241 135.437 121.102C135.681 119.922 135.884 119.108 136.047 118.661L153.198 65.1328H178.344L149.536 154.061H114.99L95.2754 100.289C95.1126 99.8822 95.0109 99.4753 94.9702 99.0684C94.9295 98.6615 94.8888 98.2139 94.8481 97.7256H94.7871C94.7464 98.2139 94.7057 98.6615 94.665 99.0684C94.665 99.4753 94.5837 99.8822 94.4209 100.289L75.8052 154.061H40.2827Z" fill="#E3C36C"/>
</svg>
